REM DIRINDEX 1\2\4\8,1\2\4\9,1\2\4\10,1\2\5\11,1\2\5\12,1\2\5\13,1\2\5\14,1\2\5\15,1\3\6\16,1\3\6\17,1\3\6\18,1\3\7\19,1\3\7\20,1\3\7\21,1\3\7\22,1\3\7\23
REM DIRNAME "folder01","folder02","folder03","folder04","folder05","folder06","folder07","folder08","folder09","folder10","folder11","folder12","folder13","folder14","folder15","folder16","folder17","folder18","folder19","folder20","folder21","folder22","folder23"
TITLE ""
FILE "LR_black_phrase_E_A10.mp3" MP3
  TRACK 01 AUDIO
    TITLE "0:"
    INDEX 01 00:00:00
  TRACK 02 AUDIO
    TITLE "16:cjc171_08811"
    INDEX 01 00:00:14
  TRACK 03 AUDIO
    TITLE "0:"
    INDEX 01 00:01:37
  TRACK 04 AUDIO
    TITLE "17:cjc171_08812"
    INDEX 01 00:01:67
  TRACK 05 AUDIO
    TITLE "0:"
    INDEX 01 00:04:45
  TRACK 06 AUDIO
    TITLE "18:cjc171_08813"
    INDEX 01 00:05:25
  TRACK 07 AUDIO
    TITLE "0:"
    INDEX 01 00:08:04
  TRACK 08 AUDIO
    TITLE "16:cjc171_08814"
    INDEX 01 00:09:07
  TRACK 09 AUDIO
    TITLE "0:"
    INDEX 01 00:10:40
  TRACK 10 AUDIO
    TITLE "17:cjc171_08815"
    INDEX 01 00:10:69
  TRACK 11 AUDIO
    TITLE "0:"
    INDEX 01 00:13:34
  TRACK 12 AUDIO
    TITLE "18:cjc171_08816"
    INDEX 01 00:14:12
  TRACK 13 AUDIO
    TITLE "0:"
    INDEX 01 00:16:52
  TRACK 14 AUDIO
    TITLE "16:cjc171_08817"
    INDEX 01 00:17:54
  TRACK 15 AUDIO
    TITLE "0:"
    INDEX 01 00:18:59
  TRACK 16 AUDIO
    TITLE "17:cjc171_08818"
    INDEX 01 00:19:12
  TRACK 17 AUDIO
    TITLE "0:"
    INDEX 01 00:22:10
  TRACK 18 AUDIO
    TITLE "18:cjc171_08819"
    INDEX 01 00:22:65
  TRACK 19 AUDIO
    TITLE "0:"
    INDEX 01 00:25:61
  TRACK 20 AUDIO
    TITLE "16:cjc171_08820"
    INDEX 01 00:26:63
  TRACK 21 AUDIO
    TITLE "0:"
    INDEX 01 00:28:03
  TRACK 22 AUDIO
    TITLE "17:cjc171_08821"
    INDEX 01 00:28:24
  TRACK 23 AUDIO
    TITLE "0:"
    INDEX 01 00:30:51
  TRACK 24 AUDIO
    TITLE "18:cjc171_08822"
    INDEX 01 00:31:23
  TRACK 25 AUDIO
    TITLE "0:"
    INDEX 01 00:33:49
  TRACK 26 AUDIO
    TITLE "16:cjc171_08823"
    INDEX 01 00:34:44
  TRACK 27 AUDIO
    TITLE "0:"
    INDEX 01 00:36:00
  TRACK 28 AUDIO
    TITLE "17:cjc171_08824"
    INDEX 01 00:36:20
  TRACK 29 AUDIO
    TITLE "0:"
    INDEX 01 00:38:56
  TRACK 30 AUDIO
    TITLE "18:cjc171_08825"
    INDEX 01 00:39:24
  TRACK 31 AUDIO
    TITLE "0:"
    INDEX 01 00:41:60
  TRACK 32 AUDIO
    TITLE "16:cjc171_08826"
    INDEX 01 00:42:56
  TRACK 33 AUDIO
    TITLE "0:"
    INDEX 01 00:44:08
  TRACK 34 AUDIO
    TITLE "17:cjc171_08827"
    INDEX 01 00:44:29
  TRACK 35 AUDIO
    TITLE "0:"
    INDEX 01 00:47:06
  TRACK 36 AUDIO
    TITLE "18:cjc171_08828"
    INDEX 01 00:47:55
  TRACK 37 AUDIO
    TITLE "0:"
    INDEX 01 00:50:32
  TRACK 38 AUDIO
    TITLE "16:cjc171_08829"
    INDEX 01 00:51:35
  TRACK 39 AUDIO
    TITLE "0:"
    INDEX 01 00:52:46
  TRACK 40 AUDIO
    TITLE "17:cjc171_08830"
    INDEX 01 00:53:03
  TRACK 41 AUDIO
    TITLE "0:"
    INDEX 01 00:55:41
  TRACK 42 AUDIO
    TITLE "18:cjc171_08831"
    INDEX 01 00:56:25
  TRACK 43 AUDIO
    TITLE "0:"
    INDEX 01 00:58:61
  TRACK 44 AUDIO
    TITLE "16:cjc171_08832"
    INDEX 01 00:59:68
  TRACK 45 AUDIO
    TITLE "0:"
    INDEX 01 01:01:08
  TRACK 46 AUDIO
    TITLE "17:cjc171_08833"
    INDEX 01 01:01:37
  TRACK 47 AUDIO
    TITLE "0:"
    INDEX 01 01:03:11
  TRACK 48 AUDIO
    TITLE "18:cjc171_08834"
    INDEX 01 01:03:68
  TRACK 49 AUDIO
    TITLE "0:"
    INDEX 01 01:05:41
  TRACK 50 AUDIO
    TITLE "16:cjc171_08835"
    INDEX 01 01:06:48
  TRACK 51 AUDIO
    TITLE "0:"
    INDEX 01 01:07:69
  TRACK 52 AUDIO
    TITLE "17:cjc171_08836"
    INDEX 01 01:08:24
  TRACK 53 AUDIO
    TITLE "0:"
    INDEX 01 01:11:10
  TRACK 54 AUDIO
    TITLE "18:cjc171_08837"
    INDEX 01 01:11:65
  TRACK 55 AUDIO
    TITLE "0:"
    INDEX 01 01:14:50
  TRACK 56 AUDIO
    TITLE "16:cjc171_08838"
    INDEX 01 01:15:53
  TRACK 57 AUDIO
    TITLE "0:"
    INDEX 01 01:16:64
  TRACK 58 AUDIO
    TITLE "17:cjc171_08839"
    INDEX 01 01:17:13
  TRACK 59 AUDIO
    TITLE "0:"
    INDEX 01 01:18:69
  TRACK 60 AUDIO
    TITLE "18:cjc171_08840"
    INDEX 01 01:19:41
  TRACK 61 AUDIO
    TITLE "0:"
    INDEX 01 01:21:21
  TRACK 62 AUDIO
    TITLE "16:cjc171_08841"
    INDEX 01 01:22:18
  TRACK 63 AUDIO
    TITLE "0:"
    INDEX 01 01:23:49
  TRACK 64 AUDIO
    TITLE "17:cjc171_08842"
    INDEX 01 01:23:70
  TRACK 65 AUDIO
    TITLE "0:"
    INDEX 01 01:26:14
  TRACK 66 AUDIO
    TITLE "18:cjc171_08843"
    INDEX 01 01:26:63
  TRACK 67 AUDIO
    TITLE "0:"
    INDEX 01 01:29:06
  TRACK 68 AUDIO
    TITLE "16:cjc171_08844"
    INDEX 01 01:30:06
  TRACK 69 AUDIO
    TITLE "0:"
    INDEX 01 01:31:33
  TRACK 70 AUDIO
    TITLE "17:cjc171_08845"
    INDEX 01 01:31:52
  TRACK 71 AUDIO
    TITLE "0:"
    INDEX 01 01:33:69
  TRACK 72 AUDIO
    TITLE "18:cjc171_08846"
    INDEX 01 01:34:41
  TRACK 73 AUDIO
    TITLE "0:"
    INDEX 01 01:36:55
  TRACK 74 AUDIO
    TITLE "16:cjc171_08847"
    INDEX 01 01:37:57
  TRACK 75 AUDIO
    TITLE "0:"
    INDEX 01 01:39:09
  TRACK 76 AUDIO
    TITLE "17:cjc171_08848"
    INDEX 01 01:39:38
  TRACK 77 AUDIO
    TITLE "0:"
    INDEX 01 01:41:27
  TRACK 78 AUDIO
    TITLE "18:cjc171_08849"
    INDEX 01 01:42:07
  TRACK 79 AUDIO
    TITLE "0:"
    INDEX 01 01:43:71
  TRACK 80 AUDIO
    TITLE "16:cjc171_08850"
    INDEX 01 01:45:03
  TRACK 81 AUDIO
    TITLE "0:"
    INDEX 01 01:46:09
  TRACK 82 AUDIO
    TITLE "17:cjc171_08851"
    INDEX 01 01:46:38
  TRACK 83 AUDIO
    TITLE "0:"
    INDEX 01 01:48:19
  TRACK 84 AUDIO
    TITLE "18:cjc171_08852"
    INDEX 01 01:48:74
  TRACK 85 AUDIO
    TITLE "0:"
    INDEX 01 01:50:57
  TRACK 86 AUDIO
    TITLE "16:cjc171_08853"
    INDEX 01 01:51:63
  TRACK 87 AUDIO
    TITLE "0:"
    INDEX 01 01:53:01
  TRACK 88 AUDIO
    TITLE "17:cjc171_08854"
    INDEX 01 01:53:32
  TRACK 89 AUDIO
    TITLE "0:"
    INDEX 01 01:55:39
  TRACK 90 AUDIO
    TITLE "18:cjc171_08855"
    INDEX 01 01:56:17
  TRACK 91 AUDIO
    TITLE "0:"
    INDEX 01 01:58:24
  TRACK 92 AUDIO
    TITLE "16:cjc171_08856"
    INDEX 01 01:59:23
  TRACK 93 AUDIO
    TITLE "0:"
    INDEX 01 02:00:48
  TRACK 94 AUDIO
    TITLE "17:cjc171_08857"
    INDEX 01 02:00:70
  TRACK 95 AUDIO
    TITLE "0:"
    INDEX 01 02:03:15
  TRACK 96 AUDIO
    TITLE "18:cjc171_08858"
    INDEX 01 02:03:60
  TRACK 97 AUDIO
    TITLE "0:"
    INDEX 01 02:06:06
  TRACK 98 AUDIO
    TITLE "16:cjc171_08859"
    INDEX 01 02:07:05
  TRACK 99 AUDIO
    TITLE "0:"
    INDEX 01 02:08:12
  TRACK 100 AUDIO
    TITLE "17:cjc171_08860"
    INDEX 01 02:08:32
  TRACK 101 AUDIO
    TITLE "0:"
    INDEX 01 02:11:58
  TRACK 102 AUDIO
    TITLE "18:cjc171_08861"
    INDEX 01 02:12:32
  TRACK 103 AUDIO
    TITLE "0:"
    INDEX 01 02:15:55
  TRACK 104 AUDIO
    TITLE "16:cjc171_08862"
    INDEX 01 02:16:63
  TRACK 105 AUDIO
    TITLE "0:"
    INDEX 01 02:17:74
  TRACK 106 AUDIO
    TITLE "17:cjc171_08863"
    INDEX 01 02:18:20
  TRACK 107 AUDIO
    TITLE "0:"
    INDEX 01 02:20:64
  TRACK 108 AUDIO
    TITLE "18:cjc171_08864"
    INDEX 01 02:21:34
  TRACK 109 AUDIO
    TITLE "0:"
    INDEX 01 02:24:03
  TRACK 110 AUDIO
    TITLE "16:cjc171_08865"
    INDEX 01 02:25:05
  TRACK 111 AUDIO
    TITLE "0:"
    INDEX 01 02:26:40
  TRACK 112 AUDIO
    TITLE "17:cjc171_08866"
    INDEX 01 02:26:63
  TRACK 113 AUDIO
    TITLE "0:"
    INDEX 01 02:29:48
  TRACK 114 AUDIO
    TITLE "18:cjc171_08867"
    INDEX 01 02:30:20
  TRACK 115 AUDIO
    TITLE "0:"
    INDEX 01 02:33:04
  TRACK 116 AUDIO
    TITLE "16:cjc171_08868"
    INDEX 01 02:34:10
  TRACK 117 AUDIO
    TITLE "0:"
    INDEX 01 02:35:19
  TRACK 118 AUDIO
    TITLE "17:cjc171_08869"
    INDEX 01 02:35:50
  TRACK 119 AUDIO
    TITLE "0:"
    INDEX 01 02:37:63
  TRACK 120 AUDIO
    TITLE "18:cjc171_08870"
    INDEX 01 02:38:45
  TRACK 121 AUDIO
    TITLE "0:"
    INDEX 01 02:40:59
  TRACK 122 AUDIO
    TITLE "16:cjc171_08871"
    INDEX 01 02:41:65
  TRACK 123 AUDIO
    TITLE "0:"
    INDEX 01 02:42:68
  TRACK 124 AUDIO
    TITLE "17:cjc171_08872"
    INDEX 01 02:43:22
  TRACK 125 AUDIO
    TITLE "0:"
    INDEX 01 02:45:11
  TRACK 126 AUDIO
    TITLE "18:cjc171_08873"
    INDEX 01 02:45:64
  TRACK 127 AUDIO
    TITLE "0:"
    INDEX 01 02:47:53
  TRACK 128 AUDIO
    TITLE "16:cjc171_08874"
    INDEX 01 02:48:51
  TRACK 129 AUDIO
    TITLE "0:"
    INDEX 01 02:50:09
  TRACK 130 AUDIO
    TITLE "17:cjc171_08875"
    INDEX 01 02:50:32
  TRACK 131 AUDIO
    TITLE "0:"
    INDEX 01 02:52:17
  TRACK 132 AUDIO
    TITLE "18:cjc171_08876"
    INDEX 01 02:52:62
  TRACK 133 AUDIO
    TITLE "0:"
    INDEX 01 02:54:50
  TRACK 134 AUDIO
    TITLE "16:cjc171_08877"
    INDEX 01 02:55:45
  TRACK 135 AUDIO
    TITLE "0:"
    INDEX 01 02:56:64
  TRACK 136 AUDIO
    TITLE "17:cjc171_08878"
    INDEX 01 02:57:11
  TRACK 137 AUDIO
    TITLE "0:"
    INDEX 01 02:59:33
  TRACK 138 AUDIO
    TITLE "18:cjc171_08879"
    INDEX 01 03:00:05
  TRACK 139 AUDIO
    TITLE "0:"
    INDEX 01 03:02:28
  TRACK 140 AUDIO
    TITLE "16:cjc171_08880"
    INDEX 01 03:03:25
  TRACK 141 AUDIO
    TITLE "0:"
    INDEX 01 03:04:42
  TRACK 142 AUDIO
    TITLE "17:cjc171_08881"
    INDEX 01 03:04:66
  TRACK 143 AUDIO
    TITLE "0:"
    INDEX 01 03:07:46
  TRACK 144 AUDIO
    TITLE "18:cjc171_08882"
    INDEX 01 03:08:16
  TRACK 145 AUDIO
    TITLE "0:"
    INDEX 01 03:11:01
  TRACK 146 AUDIO
    TITLE "16:cjc171_08883"
    INDEX 01 03:12:01
  TRACK 147 AUDIO
    TITLE "0:"
    INDEX 01 03:13:12
  TRACK 148 AUDIO
    TITLE "17:cjc171_08884"
    INDEX 01 03:13:43
  TRACK 149 AUDIO
    TITLE "0:"
    INDEX 01 03:15:50
  TRACK 150 AUDIO
    TITLE "18:cjc171_08885"
    INDEX 01 03:16:30
  TRACK 151 AUDIO
    TITLE "0:"
    INDEX 01 03:18:38
  TRACK 152 AUDIO
    TITLE "16:cjc171_08886"
    INDEX 01 03:19:44
  TRACK 153 AUDIO
    TITLE "0:"
    INDEX 01 03:20:47
  TRACK 154 AUDIO
    TITLE "17:cjc171_08887"
    INDEX 01 03:21:01
  TRACK 155 AUDIO
    TITLE "0:"
    INDEX 01 03:22:69
  TRACK 156 AUDIO
    TITLE "18:cjc171_08888"
    INDEX 01 03:23:49
  TRACK 157 AUDIO
    TITLE "0:"
    INDEX 01 03:25:42
  TRACK 158 AUDIO
    TITLE "16:cjc171_08889"
    INDEX 01 03:26:48
  TRACK 159 AUDIO
    TITLE "0:"
    INDEX 01 03:28:11
  TRACK 160 AUDIO
    TITLE "17:cjc171_08890"
    INDEX 01 03:28:41
  TRACK 161 AUDIO
    TITLE "0:"
    INDEX 01 03:31:17
  TRACK 162 AUDIO
    TITLE "18:cjc171_08891"
    INDEX 01 03:31:72
  TRACK 163 AUDIO
    TITLE "0:"
    INDEX 01 03:34:51
  TRACK 164 AUDIO
    TITLE "16:cjc171_08892"
    INDEX 01 03:35:54
  TRACK 165 AUDIO
    TITLE "0:"
    INDEX 01 03:36:60
  TRACK 166 AUDIO
    TITLE "17:cjc171_08893"
    INDEX 01 03:37:06
  TRACK 167 AUDIO
    TITLE "0:"
    INDEX 01 03:39:25
  TRACK 168 AUDIO
    TITLE "18:cjc171_08894"
    INDEX 01 03:40:09
  TRACK 169 AUDIO
    TITLE "0:"
    INDEX 01 03:42:27
  TRACK 170 AUDIO
    TITLE "16:cjc171_08895"
    INDEX 01 03:43:36
  TRACK 171 AUDIO
    TITLE "0:"
    INDEX 01 03:44:48
  TRACK 172 AUDIO
    TITLE "17:cjc171_08896"
    INDEX 01 03:44:69
  TRACK 173 AUDIO
    TITLE "0:"
    INDEX 01 03:46:60
  TRACK 174 AUDIO
    TITLE "18:cjc171_08897"
    INDEX 01 03:47:50
  TRACK 175 AUDIO
    TITLE "0:"
    INDEX 01 03:49:47
  TRACK 176 AUDIO
    TITLE "16:cjc171_08898"
    INDEX 01 03:50:54
  TRACK 177 AUDIO
    TITLE "0:"
    INDEX 01 03:51:59
  TRACK 178 AUDIO
    TITLE "17:cjc171_08899"
    INDEX 01 03:52:04
  TRACK 179 AUDIO
    TITLE "0:"
    INDEX 01 03:53:74
  TRACK 180 AUDIO
    TITLE "18:cjc171_08900"
    INDEX 01 03:54:44
  TRACK 181 AUDIO
    TITLE "0:"
    INDEX 01 03:56:39
